<?xml version="1.0" encoding="UTF-8"?>
<!DOCTYPE svg PUBLIC "-//W3C//DTD SVG 1.1//EN" "http://www.w3.org/Graphics/SVG/1.1/DTD/svg11.dtd">
<svg version="1.1" xmlns="http://www.w3.org/2000/svg" xmlns:xlink="http://www.w3.org/1999/xlink" x="0" y="0" width="208" height="229" viewBox="0, 0, 208, 229">
  <g id="Layer_1">
    <path d="M2.012,-0.562 L205.954,-0.562 L205.954,203.752 L2.012,203.752 z M2.012,-0.562" fill-opacity="0" stroke="#000000" stroke-width="3.868" stroke-linecap="round" stroke-linejoin="round"/>
    <text transform="matrix(1, 0, -0, 1, 35.133, 64.842)">
      <tspan x="-24.047" y="52.5" font-family="Helvetica" font-size="144" kerning="0" fill="#000000">{</tspan>
    </text>
    <text transform="matrix(1, 0, -0, 1, 162.047, 64.842)">
      <tspan x="-24.047" y="52.5" font-family="Helvetica" font-size="144" kerning="0" fill="#000000">}</tspan>
    </text>
    <path d="M136.139,90.817 C135.503,90.48 134.854,90.193 134.202,89.938 L134.669,89.9 C134.669,89.9 130.518,88.062 130.154,74.72 C129.796,61.376 134.111,59.1 134.111,59.1 L133.492,59.127 C136.753,57.454 139.557,54.811 141.408,51.323 C146.231,42.251 142.781,30.982 133.706,26.158 C124.628,21.34 113.362,24.783 108.542,33.864 C106.561,37.589 105.997,41.681 106.623,45.547 L106.411,45.221 C106.411,45.221 107.505,50.063 96.153,57.109 C84.804,64.159 79.684,60.649 79.684,60.649 L80.01,61.129 C79.685,60.928 79.374,60.723 79.035,60.546 C69.957,55.722 58.688,59.169 53.866,68.247 C49.046,77.324 52.494,88.588 61.569,93.414 C68.335,97.005 76.313,96.004 81.934,91.5 L81.812,91.736 C81.812,91.736 85.944,88.337 97.852,94.73 C107.252,99.774 108.648,104.718 108.827,106.576 C108.581,113.469 112.174,120.23 118.674,123.683 C127.749,128.508 139.018,125.058 143.839,115.982 C148.662,106.907 145.216,95.637 136.139,90.817 z M115.154,93.263 C113.65,93.795 109.354,94.384 100.307,89.533 C90.51,84.273 89.056,79.879 88.843,78.56 C88.982,76.96 88.893,75.363 88.62,73.805 L88.68,73.895 C88.68,73.895 87.882,69.621 99.092,62.66 C109.125,56.432 113.687,57.671 114.535,57.996 C115.081,58.367 115.647,58.713 116.242,59.029 C117.37,59.629 118.535,60.099 119.714,60.447 C121.093,61.761 123.633,65.492 123.897,75.301 C124.167,85.184 121.263,88.995 119.68,90.343 C118.05,91.081 116.524,92.066 115.154,93.263 z M115.154,93.263" fill="#000000"/>
    <path d="M113.927,32.081 C108.513,38.004 108.398,46.717 113.616,51.647 C111.036,49.164 111.092,43.996 113.699,39.05 C114.034,38.607 115.005,37.56 116.424,38.036 C116.566,38.085 116.66,38.098 116.715,38.089 C117.036,38.158 117.366,38.199 117.705,38.184 C119.861,38.086 121.528,36.263 121.431,34.107 C121.386,33.14 120.986,32.284 120.366,31.627 C125.368,28.35 131.107,27.975 133.46,30.123 L133.549,30.129 C128.176,25.223 119.394,26.1 113.927,32.081 z M113.927,32.081" fill="#FFFFFF"/>
    <path d="M59.32,86.826 C59.274,86.779 59.227,86.724 59.179,86.678 C59.209,86.709 59.238,86.747 59.274,86.78 z M59.32,86.826" fill="#FFFFFF"/>
    <path d="M59.493,67.111 C54.077,73.035 53.964,81.746 59.18,86.677 C56.602,84.193 56.657,79.025 59.263,74.079 C59.599,73.635 60.571,72.589 61.99,73.065 C62.131,73.114 62.226,73.126 62.282,73.119 C62.603,73.188 62.933,73.229 63.272,73.214 C65.428,73.115 67.094,71.292 66.997,69.138 C66.952,68.171 66.552,67.314 65.934,66.658 C70.933,63.382 76.674,63.004 79.026,65.153 L79.115,65.161 C73.742,60.252 64.957,61.128 59.493,67.111 z M59.493,67.111" fill="#FFFFFF"/>
    <path d="M116.945,116.485 C116.898,116.437 116.851,116.383 116.804,116.337 C116.833,116.368 116.863,116.406 116.898,116.438 z M116.945,116.485" fill="#FFFFFF"/>
    <path d="M117.117,96.767 C111.701,102.693 111.588,111.406 116.803,116.336 C114.224,113.853 114.281,108.683 116.885,103.739 C117.222,103.294 118.192,102.249 119.613,102.725 C119.756,102.772 119.848,102.786 119.905,102.778 C120.225,102.847 120.556,102.888 120.895,102.874 C123.049,102.774 124.715,100.95 124.618,98.794 C124.574,97.828 124.173,96.972 123.555,96.315 C128.555,93.04 134.294,92.663 136.648,94.811 L136.736,94.818 C131.365,89.911 122.579,90.788 117.117,96.767 z M117.117,96.767" fill="#FFFFFF"/>
    <path d="M1.871,150.342 L206.069,150.342 L206.069,203.892 L1.871,203.892 z M1.871,150.342" fill="#000000"/>
    <path d="M1.871,150.342 L206.069,150.342 L206.069,203.892 L1.871,203.892 z M1.871,150.342" fill-opacity="0" stroke="#000000" stroke-width="3.587" stroke-linecap="round" stroke-linejoin="round"/>
    <text transform="matrix(1, 0, -0, 1, 103.987, 178.117)">
      <tspan x="-85.57" y="14" font-family="Helvetica" font-size="40" fill="#FFFFFF">JS</tspan>
      <tspan x="-38.891" y="14" font-family="Helvetica" font-size="40" kerning="-0.008" fill="#FFFFFF">O</tspan>
      <tspan x="-7.785" y="14" font-family="Helvetica" font-size="40" kerning="0.008" fill="#FFFFFF">N</tspan>
      <tspan x="21.109" y="14" font-family="Helvetica" font-size="40" fill="#FFFFFF">-</tspan>
      <tspan x="34.43" y="14" font-family="Helvetica" font-size="40" kerning="0.008" fill="#FFFFFF">L</tspan>
      <tspan x="56.684" y="14" font-family="Helvetica" font-size="40" kerning="0" fill="#FFFFFF">D</tspan>
    </text>
  </g>
</svg>
