<?xml version="1.0" encoding="UTF-8"?>
<!DOCTYPE svg PUBLIC "-//W3C//DTD SVG 1.1//EN" "http://www.w3.org/Graphics/SVG/1.1/DTD/svg11.dtd">
<svg version="1.1" xmlns="http://www.w3.org/2000/svg" xmlns:xlink="http://www.w3.org/1999/xlink" x="0" y="0" width="300" height="300" viewBox="0, 0, 300, 300">
  <g id="Layer_1">
    <g>
      <path d="M28.5,150 L37.5,150 L37.5,0 L28.5,0 L28.5,150 z M46.5,150 L73.5,150 L73.5,0 L46.5,0 L46.5,150 z M82.5,0 L82.5,150 L109.5,150 L109.5,0 L82.5,0 z" fill="#000000"/>
      <path d="M28.5,150 L37.5,150 L37.5,0 L28.5,0 L28.5,150 z M46.5,150 L73.5,150 L73.5,0 L46.5,0 L46.5,150 z M82.5,0 L82.5,150 L109.5,150 L109.5,0 L82.5,0 z" fill-opacity="0" stroke="#000000" stroke-width="0.3"/>
    </g>
    <path d="M244.5,150 L253.5,150 L253.5,0 L244.5,0 L244.5,150 z M262.5,0 L262.5,150 L271.5,150 L271.5,0 L262.5,0 z M118.5,150 L127.5,150 L127.5,0 L118.5,0 L118.5,150 z M136.5,0 L136.5,150 L145.5,150 L145.5,0 L136.5,0 z" fill="#000000"/>
    <path d="M154.5,150 L181.5,150 L181.5,0 L154.5,0 L154.5,150 z M190.5,150 L199.5,150 L199.5,0 L190.5,0 L190.5,150 z M208.5,0 L208.5,150 L235.5,150 L235.5,0 L208.5,0 z" fill="#000000"/>
  </g>
</svg>
